<?xml version="1.0" encoding="UTF-8" standalone="no"?>
<!DOCTYPE svg PUBLIC "-//W3C//DTD SVG 1.1//EN" "http://www.w3.org/Graphics/SVG/1.1/DTD/svg11.dtd">
<svg xmlns="http://www.w3.org/2000/svg" version="1.1" viewBox="0.00 0.00 1024.00 1024.00">
<g stroke-width="2.00" fill="none" stroke-linecap="butt">
<path stroke="#8a8c93" vector-effect="non-scaling-stroke" d="
  M 490.09 452.01
  C 473.66 473.82 453.19 491.83 428.48 503.65
  A 0.85 0.85 0.0 0 1 427.48 503.44
  Q 422.67 498.06 417.45 492.81
  Q 414.66 490.00 414.08 489.67
  C 410.98 487.91 405.76 492.29 403.55 494.55
  Q 395.70 502.61 395.16 503.16
  Q 393.08 505.32 392.25 507.47
  Q 392.06 507.95 392.26 508.42
  Q 393.38 511.05 395.33 513.16
  Q 405.90 524.58 416.56 535.91
  C 419.29 538.81 421.00 541.37 424.66 540.10
  Q 426.39 539.50 429.36 536.31
  Q 436.01 529.16 438.67 526.66
  Q 441.06 524.42 443.49 522.84
  A 1.68 1.67 -32.9 0 0 443.99 520.53
  Q 442.01 517.44 438.68 515.18
  Q 437.15 514.14 439.00 514.16
  C 456.20 514.44 472.73 507.71 487.10 498.59
  Q 488.14 497.93 487.41 498.92
  Q 472.51 519.11 454.79 534.83
  A 0.41 0.41 0.0 0 1 454.24 534.82
  L 447.18 528.21
  A 1.22 1.21 -38.1 0 0 445.75 528.04
  Q 442.73 529.75 440.16 532.42
  Q 430.55 542.40 428.88 544.37
  C 426.63 547.04 428.47 548.60 430.43 550.37
  A 0.71 0.62 51.0 0 1 430.39 551.46
  L 406.29 564.05
  Q 405.67 564.38 406.25 564.58
  Q 414.23 567.36 421.45 568.54
  C 437.02 571.10 455.19 565.79 468.99 557.41
  Q 476.19 553.03 482.74 548.18
  Q 482.95 548.02 483.32 548.13
  Q 484.01 548.34 483.52 548.87
  L 474.06 558.98
  A 0.51 0.51 0.0 0 1 473.25 558.90
  L 472.73 558.09
  A 1.22 1.14 32.9 0 0 470.53 558.49
  Q 470.44 559.40 471.43 559.77
  A 0.87 0.87 0.0 0 1 471.76 561.17
  Q 451.46 583.30 425.81 596.81
  Q 415.46 602.26 405.37 606.50
  Q 403.74 607.19 405.45 607.65
  Q 437.70 616.36 467.73 602.59
  C 472.91 600.22 476.94 598.27 481.12 595.34
  A 0.72 0.71 -40.4 0 1 482.02 595.41
  L 493.57 606.21
  Q 493.79 606.42 494.03 606.23
  C 496.68 604.23 498.14 602.11 498.11 598.37
  Q 498.09 595.35 498.56 582.94
  Q 498.59 582.04 499.22 581.46
  L 503.63 577.38
  Q 504.24 576.81 504.22 577.65
  Q 503.88 592.26 503.59 603.42
  Q 503.57 604.34 502.85 605.11
  Q 446.92 665.22 388.89 723.83
  Q 385.01 727.75 384.54 728.56
  C 379.17 737.89 398.86 759.84 407.61 750.10
  Q 415.14 741.72 431.14 724.63
  Q 545.15 602.84 550.51 597.22
  A 0.64 0.64 0.0 0 1 551.29 597.11
  Q 585.56 617.51 623.83 607.74
  Q 625.16 607.40 623.91 606.84
  Q 607.60 599.55 593.32 590.45
  C 580.50 582.29 568.97 572.00 558.34 560.90
  A 1.30 1.29 37.7 0 1 558.14 559.38
  L 559.87 556.19
  A 0.67 0.67 0.0 0 1 560.79 555.92
  C 581.17 567.66 600.98 572.93 623.95 564.76
  Q 624.38 564.61 623.98 564.39
  L 598.72 550.71
  A 1.13 1.13 0.0 0 1 598.66 548.75
  Q 600.42 547.65 601.63 545.92
  A 1.21 1.17 56.8 0 0 601.81 544.99
  C 601.17 541.85 595.35 536.49 591.63 532.49
  Q 588.70 529.35 585.76 527.93
  Q 583.66 526.92 581.92 528.90
  Q 578.99 532.23 576.79 534.91
  A 1.00 0.99 -49.5 0 1 575.36 535.03
  Q 558.68 520.36 545.46 502.56
  Q 544.33 501.05 543.68 499.69
  Q 543.00 498.28 544.33 499.12
  C 559.16 508.58 574.28 514.80 591.99 514.19
  A 0.20 0.20 0.0 0 1 592.11 514.56
  C 590.17 515.90 586.93 518.21 586.22 520.51
  A 1.46 1.45 26.1 0 0 586.78 522.13
  Q 595.57 528.27 602.80 537.16
  Q 605.42 540.38 608.82 539.87
  Q 610.73 539.59 613.56 536.65
  Q 627.88 521.77 636.25 511.76
  Q 637.69 510.04 638.31 507.85
  Q 638.42 507.42 638.27 507.01
  Q 637.46 504.82 635.28 502.56
  Q 630.64 497.76 625.52 492.79
  C 623.39 490.72 618.67 487.69 616.05 490.55
  Q 610.37 496.73 603.20 504.23
  A 1.40 1.40 0.0 0 1 601.58 504.53
  C 577.75 493.27 556.76 474.68 541.28 453.83
  Q 539.36 451.23 542.01 453.08
  Q 546.28 456.08 550.16 458.59
  C 565.20 468.34 586.03 475.67 604.26 467.77
  A 0.66 0.65 -43.7 0 0 604.29 466.58
  Q 564.26 447.06 538.40 410.57
  Q 537.39 409.13 537.04 408.47
  Q 536.11 406.69 537.48 407.77
  C 552.54 419.64 571.63 430.21 591.05 421.15
  Q 591.38 420.99 591.15 420.70
  Q 590.35 419.68 588.80 418.71
  Q 554.69 397.26 534.58 365.99
  Q 532.70 363.07 535.37 365.30
  C 547.90 375.79 567.30 387.75 583.86 376.57
  A 0.57 0.56 40.7 0 0 583.78 375.59
  C 562.52 365.46 543.76 350.17 532.16 329.35
  Q 521.44 310.12 516.20 289.28
  A 0.22 0.22 0.0 0 0 515.84 289.17
  Q 515.66 289.35 515.55 289.76
  Q 510.76 308.07 502.09 324.11
  Q 494.02 339.05 485.62 347.87
  Q 468.97 365.37 447.22 375.69
  A 0.51 0.51 0.0 0 0 447.13 376.56
  C 456.56 383.48 468.76 381.93 479.00 376.71
  Q 487.54 372.36 495.95 364.43
  Q 496.24 364.15 496.71 364.19
  Q 497.26 364.23 496.95 364.69
  Q 483.57 384.64 466.41 400.29
  C 458.30 407.68 449.41 413.80 439.42 420.37
  A 0.44 0.44 0.0 0 0 439.46 421.13
  C 457.44 430.36 477.57 420.33 491.71 408.74
  Q 496.02 405.21 492.73 409.70
  C 478.39 429.29 460.45 446.68 439.42 458.63
  Q 432.06 462.81 425.22 466.22
  A 0.62 0.61 -44.7 0 0 425.21 467.32
  C 443.33 476.45 466.79 467.78 482.26 456.97
  Q 488.12 452.88 489.85 451.75
  Q 490.70 451.20 490.09 452.01"
/>
<path stroke="#8a8c93" vector-effect="non-scaling-stroke" d="
  M 620.73 397.86
  Q 623.25 394.25 625.14 391.21
  C 632.91 378.73 631.58 363.49 623.05 351.67
  Q 621.70 349.80 622.02 352.09
  C 623.94 365.73 619.11 379.04 611.49 390.23
  C 603.89 401.38 597.93 409.42 597.68 422.25
  Q 597.28 442.28 613.24 454.07
  Q 616.68 456.60 620.46 457.66
  Q 620.97 457.81 620.70 457.35
  Q 613.55 445.01 611.28 440.58
  Q 609.06 436.26 612.32 439.85
  Q 616.78 444.76 625.14 447.78
  Q 626.36 448.22 625.63 447.16
  Q 616.47 433.77 621.13 417.38
  A 0.86 0.86 0.0 0 1 622.77 417.32
  L 629.20 435.32
  A 0.53 0.53 0.0 0 0 630.12 435.47
  Q 631.40 433.84 632.15 431.62
  Q 634.98 423.28 635.61 417.62
  Q 637.67 399.27 638.53 391.54
  Q 638.88 388.49 639.64 385.49
  Q 639.90 384.49 640.22 385.47
  Q 643.21 394.45 651.05 416.76
  Q 654.02 425.22 654.60 432.14
  Q 654.80 434.54 655.73 432.32
  Q 657.18 428.86 658.37 422.86
  Q 660.76 410.86 659.69 399.24
  Q 659.48 396.95 660.77 398.86
  Q 667.82 409.32 670.48 420.73
  C 672.28 428.48 672.18 436.53 672.10 445.17
  A 0.42 0.42 0.0 0 0 672.68 445.57
  Q 675.35 444.48 677.73 442.48
  Q 688.14 433.80 690.32 421.18
  A 0.46 0.44 36.6 0 1 691.16 421.08
  Q 691.20 421.15 691.24 421.56
  Q 693.28 441.64 682.66 458.53
  Q 681.67 460.11 683.33 459.28
  Q 684.54 458.69 685.73 457.46
  Q 705.01 437.58 700.11 411.10
  C 698.36 401.68 693.68 391.90 688.47 383.27
  Q 687.34 381.39 687.41 383.58
  Q 687.94 399.10 682.83 416.88
  A 0.17 0.17 0.0 0 1 682.50 416.87
  Q 679.46 403.90 670.46 393.61
  A 0.71 0.70 -51.7 0 1 670.37 392.80
  C 678.18 378.89 676.33 362.63 668.03 349.60
  Q 666.47 347.16 666.88 350.02
  C 668.54 361.68 667.46 372.01 660.80 381.87
  Q 659.80 383.35 659.53 381.59
  C 656.07 358.96 650.95 336.80 630.82 323.82
  Q 627.57 321.73 629.99 324.74
  Q 637.32 333.90 639.60 344.72
  C 643.88 365.07 637.94 385.46 621.02 398.14
  Q 620.02 398.88 620.73 397.86"
/>
<path stroke="#8a8c93" vector-effect="non-scaling-stroke" d="
  M 409.72 397.94
  Q 410.40 399.18 409.31 398.34
  C 401.66 392.36 396.87 385.61 393.79 376.14
  Q 386.17 352.77 398.43 331.04
  C 399.87 328.48 402.10 326.28 403.57 323.70
  Q 403.96 323.01 403.28 323.42
  C 381.25 336.46 377.00 358.26 372.36 381.58
  A 0.57 0.57 0.0 0 1 371.33 381.79
  C 364.59 371.76 363.60 361.59 365.08 349.77
  Q 365.38 347.43 364.10 349.41
  C 357.17 360.20 354.68 373.82 359.33 386.19
  Q 360.59 389.55 362.50 393.41
  Q 362.71 393.84 362.39 394.19
  Q 352.76 404.62 350.40 416.90
  Q 350.05 418.72 349.56 416.93
  C 346.23 404.68 343.79 393.96 344.99 382.91
  A 0.35 0.35 0.0 0 0 344.46 382.57
  Q 344.12 382.78 343.99 382.98
  C 337.38 393.56 331.93 406.19 331.24 418.50
  Q 329.98 441.25 345.83 457.48
  Q 347.20 458.89 349.05 460.08
  A 0.91 0.35 67.9 0 0 349.03 458.76
  C 341.62 447.84 339.92 433.48 341.28 420.49
  Q 341.29 420.40 341.53 420.38
  Q 341.81 420.35 341.86 420.62
  Q 344.84 436.18 358.13 445.52
  Q 359.82 446.71 359.84 444.64
  Q 359.91 436.06 360.69 428.62
  C 361.83 417.81 366.19 408.60 371.51 399.22
  Q 372.95 396.69 372.65 399.58
  Q 370.99 415.91 376.35 433.44
  Q 376.46 433.81 376.77 433.80
  Q 377.25 433.78 377.25 433.30
  Q 377.28 427.91 379.26 422.05
  Q 382.67 411.96 389.53 393.83
  Q 390.76 390.57 392.00 386.62
  Q 392.50 385.02 392.93 386.64
  Q 393.43 388.51 393.65 391.05
  Q 394.20 397.52 395.13 411.44
  Q 396.03 424.91 401.01 436.03
  A 0.61 0.61 0.0 0 0 402.14 435.99
  L 409.02 417.51
  A 0.53 0.53 0.0 0 1 409.99 417.45
  C 414.38 425.80 410.75 439.35 406.06 446.72
  Q 404.94 448.49 406.97 447.96
  C 412.18 446.60 415.98 443.44 419.98 439.68
  Q 421.18 438.55 420.48 440.04
  Q 417.51 446.37 412.46 454.22
  Q 411.45 455.79 411.00 457.17
  Q 410.82 457.72 411.38 457.58
  Q 414.60 456.79 417.66 454.66
  Q 432.67 444.19 433.86 425.71
  C 434.82 410.66 427.58 401.92 419.31 389.59
  C 412.34 379.21 407.24 365.17 409.63 352.75
  Q 410.14 350.12 408.47 352.21
  Q 407.00 354.06 405.22 357.79
  Q 396.99 375.08 406.30 391.78
  Q 409.62 397.74 409.72 397.94"
/>
<path stroke="#8a8c93" vector-effect="non-scaling-stroke" d="
  M 674.00 547.00
  Q 674.04 547.25 673.84 548.02
  C 669.57 565.14 656.98 581.86 643.91 594.91
  Q 643.73 595.08 643.50 595.60
  A 0.39 0.38 -76.9 0 0 643.83 596.14
  C 675.36 597.70 703.00 580.28 722.38 556.63
  Q 739.13 536.19 749.88 512.73
  C 758.45 494.00 761.92 475.06 759.17 454.41
  A 0.57 0.57 0.0 0 0 758.69 453.93
  Q 758.20 453.85 757.98 454.26
  Q 751.24 466.65 740.93 477.67
  C 734.70 484.32 728.09 490.86 721.23 495.94
  C 714.93 500.61 709.50 499.46 703.44 495.30
  Q 696.84 490.77 689.45 483.57
  Q 671.13 465.72 654.34 443.96
  Q 653.35 442.68 652.64 442.27
  Q 651.87 441.82 651.11 442.60
  L 617.19 477.51
  A 1.11 0.72 -39.5 0 0 616.86 478.56
  C 618.12 481.24 619.48 482.41 622.45 483.89
  Q 632.76 489.04 640.36 498.08
  Q 657.91 518.94 673.61 545.92
  Q 673.91 546.43 674.00 547.00"
/>
<path stroke="#8a8c93" vector-effect="non-scaling-stroke" d="
  M 356.96 546.45
  Q 360.01 541.89 369.74 526.99
  Q 380.60 510.33 392.61 497.08
  C 398.04 491.10 403.44 486.48 410.92 482.92
  Q 412.82 482.01 414.20 479.79
  A 1.99 1.98 39.0 0 0 413.94 477.35
  L 380.93 443.17
  Q 379.63 441.82 378.49 443.30
  Q 361.22 465.44 343.75 482.48
  Q 333.28 492.68 324.68 497.41
  C 317.17 501.54 311.87 497.73 306.22 492.98
  C 293.18 482.01 281.83 469.55 273.63 454.64
  Q 273.39 454.20 272.97 454.03
  A 0.54 0.54 0.0 0 0 272.24 454.53
  C 272.15 493.85 289.92 533.15 315.65 562.38
  C 333.94 583.16 358.09 596.62 386.24 596.25
  A 0.41 0.41 0.0 0 0 386.52 595.55
  Q 369.39 579.05 359.74 557.56
  Q 357.46 552.47 356.74 547.41
  A 1.35 1.33 -32.6 0 1 356.96 546.45"
/>
<path stroke="#8a8c93" vector-effect="non-scaling-stroke" d="
  M 547.63 731.70
  Q 555.60 730.98 569.61 730.72
  Q 571.63 730.69 573.99 730.04
  A 0.43 0.43 0.0 0 0 574.11 729.26
  Q 572.80 728.45 570.93 728.08
  Q 551.13 724.18 530.69 724.20
  Q 529.73 724.20 529.72 723.24
  L 528.44 649.80
  Q 528.42 648.78 529.13 649.52
  Q 558.05 679.35 586.68 709.52
  Q 593.12 716.30 596.04 720.16
  C 597.30 721.82 598.29 722.44 600.34 722.18
  Q 603.87 721.72 606.75 718.72
  Q 611.57 713.70 618.77 706.53
  C 620.90 704.40 619.20 700.69 617.58 699.02
  Q 573.90 654.08 540.08 617.73
  A 0.72 0.72 0.0 0 0 539.02 617.72
  L 503.71 655.46
  A 4.29 4.28 67.3 0 0 502.56 658.28
  L 500.72 723.70
  A 0.43 0.42 -90.0 0 1 500.31 724.12
  C 484.48 724.63 470.87 725.33 456.32 728.86
  Q 455.34 729.10 455.64 730.25
  Q 455.78 730.79 457.10 730.83
  Q 469.77 731.23 479.45 732.26
  Q 479.53 732.26 479.58 732.31
  Q 479.63 732.37 479.66 732.43
  Q 479.74 732.60 479.46 732.62
  Q 474.83 732.98 473.25 733.25
  C 464.76 734.70 455.91 735.73 447.17 737.42
  Q 442.00 738.41 447.26 738.73
  C 451.61 739.00 455.85 739.39 460.62 738.70
  Q 469.03 737.47 471.78 737.30
  Q 514.62 734.61 556.99 736.80
  Q 559.81 736.94 575.76 738.28
  Q 580.19 738.65 584.79 738.83
  A 0.27 0.26 -87.8 0 0 585.06 738.57
  L 585.07 738.22
  Q 585.08 738.06 584.92 738.03
  Q 565.27 734.07 547.63 731.98
  A 0.14 0.14 0.0 0 1 547.63 731.70"
/>
<path stroke="#8a8c93" vector-effect="non-scaling-stroke" d="
  M 604.98 727.39
  A 1.70 1.70 0.0 0 0 604.97 729.74
  Q 616.85 742.24 626.31 749.86
  Q 631.89 754.37 637.43 751.95
  Q 643.38 749.36 647.09 743.07
  Q 651.24 736.03 645.91 729.48
  Q 640.32 722.60 630.17 710.72
  C 626.93 706.93 623.48 708.65 620.44 711.62
  Q 615.79 716.16 604.98 727.39"
/>
<path stroke="#8a8c93" vector-effect="non-scaling-stroke" d="
  M 499.20 743.55
  Q 494.41 744.38 491.33 744.62
  C 471.01 746.16 450.85 748.01 432.16 751.65
  Q 431.94 751.70 431.85 751.91
  Q 431.76 752.09 431.78 752.22
  Q 431.83 752.63 432.23 752.71
  Q 436.05 753.51 438.33 753.65
  Q 464.97 755.38 495.01 755.68
  C 528.76 756.01 560.58 755.93 593.00 753.75
  Q 596.96 753.49 599.99 752.63
  Q 600.51 752.49 600.09 752.15
  Q 599.02 751.28 597.83 751.09
  Q 573.45 747.17 543.33 744.42
  Q 541.89 744.29 543.24 743.78
  Q 543.95 743.52 545.01 743.44
  Q 561.25 742.25 577.30 744.80
  Q 577.45 744.83 577.44 744.67
  L 577.44 744.39
  Q 577.43 744.09 577.14 744.04
  Q 565.83 741.99 557.60 740.93
  Q 541.44 738.85 527.16 741.09
  A 4.53 4.50 51.3 0 1 524.79 740.82
  C 518.15 738.15 511.58 736.19 504.25 736.67
  C 494.99 737.27 486.75 737.68 478.10 739.25
  Q 468.68 740.96 465.80 741.49
  C 461.60 742.28 457.68 742.33 453.59 742.90
  Q 453.02 742.98 452.94 743.25
  Q 452.85 743.61 453.21 743.55
  Q 456.95 742.90 457.23 742.90
  C 462.61 742.86 467.80 742.08 473.27 742.22
  Q 479.56 742.39 491.01 742.62
  Q 496.54 742.73 499.20 743.31
  Q 499.81 743.44 499.20 743.55"
/>
<path stroke="#8a8c93" vector-effect="non-scaling-stroke" d="
  M 556.11 557.64
  C 556.91 556.92 557.74 556.01 558.58 555.70
  Q 559.64 555.31 558.59 554.65
  L 548.72 548.38
  Q 546.93 547.24 548.08 548.99
  C 550.06 552.00 552.88 554.05 554.66 557.38
  A 0.94 0.94 0.0 0 0 556.11 557.64"
/>
<path stroke="#8a8c93" vector-effect="non-scaling-stroke" d="
  M 536.86 587.31
  L 535.60 586.05
  A 0.41 0.41 0.0 0 0 535.02 586.05
  L 534.92 586.15
  A 13.76 1.22 -45.0 0 0 526.05 596.75
  L 526.16 596.86
  A 13.76 1.22 -45.0 0 0 536.76 587.99
  L 536.86 587.89
  A 0.41 0.41 0.0 0 0 536.86 587.31"
/>
<path stroke="#8a8c93" vector-effect="non-scaling-stroke" d="
  M 426.56 697.29
  Q 431.05 691.71 431.94 690.42
  Q 432.00 690.33 431.91 690.24
  L 431.91 690.23
  Q 431.87 690.19 431.77 690.29
  L 397.45 726.28
  Q 396.57 727.19 397.50 728.06
  L 398.30 728.81
  Q 399.28 729.72 400.15 728.72
  Q 413.46 713.58 426.56 697.29"
/>
<path stroke="#8a8c93" vector-effect="non-scaling-stroke" d="
  M 402.5868 747.8217
  A 10.39 1.74 50.8 0 0 397.3684 738.6703
  A 10.39 1.74 50.8 0 0 389.4532 731.7183
  A 10.39 1.74 50.8 0 0 394.6716 740.8697
  A 10.39 1.74 50.8 0 0 402.5868 747.8217"
/>
</g>
<path fill="#f9f9fb" d="
  M 1024.00 0.00
  L 1024.00 1024.00
  L 0.00 1024.00
  L 0.00 0.00
  L 1024.00 0.00
  Z
  M 490.09 452.01
  C 473.66 473.82 453.19 491.83 428.48 503.65
  A 0.85 0.85 0.0 0 1 427.48 503.44
  Q 422.67 498.06 417.45 492.81
  Q 414.66 490.00 414.08 489.67
  C 410.98 487.91 405.76 492.29 403.55 494.55
  Q 395.70 502.61 395.16 503.16
  Q 393.08 505.32 392.25 507.47
  Q 392.06 507.95 392.26 508.42
  Q 393.38 511.05 395.33 513.16
  Q 405.90 524.58 416.56 535.91
  C 419.29 538.81 421.00 541.37 424.66 540.10
  Q 426.39 539.50 429.36 536.31
  Q 436.01 529.16 438.67 526.66
  Q 441.06 524.42 443.49 522.84
  A 1.68 1.67 -32.9 0 0 443.99 520.53
  Q 442.01 517.44 438.68 515.18
  Q 437.15 514.14 439.00 514.16
  C 456.20 514.44 472.73 507.71 487.10 498.59
  Q 488.14 497.93 487.41 498.92
  Q 472.51 519.11 454.79 534.83
  A 0.41 0.41 0.0 0 1 454.24 534.82
  L 447.18 528.21
  A 1.22 1.21 -38.1 0 0 445.75 528.04
  Q 442.73 529.75 440.16 532.42
  Q 430.55 542.40 428.88 544.37
  C 426.63 547.04 428.47 548.60 430.43 550.37
  A 0.71 0.62 51.0 0 1 430.39 551.46
  L 406.29 564.05
  Q 405.67 564.38 406.25 564.58
  Q 414.23 567.36 421.45 568.54
  C 437.02 571.10 455.19 565.79 468.99 557.41
  Q 476.19 553.03 482.74 548.18
  Q 482.95 548.02 483.32 548.13
  Q 484.01 548.34 483.52 548.87
  L 474.06 558.98
  A 0.51 0.51 0.0 0 1 473.25 558.90
  L 472.73 558.09
  A 1.22 1.14 32.9 0 0 470.53 558.49
  Q 470.44 559.40 471.43 559.77
  A 0.87 0.87 0.0 0 1 471.76 561.17
  Q 451.46 583.30 425.81 596.81
  Q 415.46 602.26 405.37 606.50
  Q 403.74 607.19 405.45 607.65
  Q 437.70 616.36 467.73 602.59
  C 472.91 600.22 476.94 598.27 481.12 595.34
  A 0.72 0.71 -40.4 0 1 482.02 595.41
  L 493.57 606.21
  Q 493.79 606.42 494.03 606.23
  C 496.68 604.23 498.14 602.11 498.11 598.37
  Q 498.09 595.35 498.56 582.94
  Q 498.59 582.04 499.22 581.46
  L 503.63 577.38
  Q 504.24 576.81 504.22 577.65
  Q 503.88 592.26 503.59 603.42
  Q 503.57 604.34 502.85 605.11
  Q 446.92 665.22 388.89 723.83
  Q 385.01 727.75 384.54 728.56
  C 379.17 737.89 398.86 759.84 407.61 750.10
  Q 415.14 741.72 431.14 724.63
  Q 545.15 602.84 550.51 597.22
  A 0.64 0.64 0.0 0 1 551.29 597.11
  Q 585.56 617.51 623.83 607.74
  Q 625.16 607.40 623.91 606.84
  Q 607.60 599.55 593.32 590.45
  C 580.50 582.29 568.97 572.00 558.34 560.90
  A 1.30 1.29 37.7 0 1 558.14 559.38
  L 559.87 556.19
  A 0.67 0.67 0.0 0 1 560.79 555.92
  C 581.17 567.66 600.98 572.93 623.95 564.76
  Q 624.38 564.61 623.98 564.39
  L 598.72 550.71
  A 1.13 1.13 0.0 0 1 598.66 548.75
  Q 600.42 547.65 601.63 545.92
  A 1.21 1.17 56.8 0 0 601.81 544.99
  C 601.17 541.85 595.35 536.49 591.63 532.49
  Q 588.70 529.35 585.76 527.93
  Q 583.66 526.92 581.92 528.90
  Q 578.99 532.23 576.79 534.91
  A 1.00 0.99 -49.5 0 1 575.36 535.03
  Q 558.68 520.36 545.46 502.56
  Q 544.33 501.05 543.68 499.69
  Q 543.00 498.28 544.33 499.12
  C 559.16 508.58 574.28 514.80 591.99 514.19
  A 0.20 0.20 0.0 0 1 592.11 514.56
  C 590.17 515.90 586.93 518.21 586.22 520.51
  A 1.46 1.45 26.1 0 0 586.78 522.13
  Q 595.57 528.27 602.80 537.16
  Q 605.42 540.38 608.82 539.87
  Q 610.73 539.59 613.56 536.65
  Q 627.88 521.77 636.25 511.76
  Q 637.69 510.04 638.31 507.85
  Q 638.42 507.42 638.27 507.01
  Q 637.46 504.82 635.28 502.56
  Q 630.64 497.76 625.52 492.79
  C 623.39 490.72 618.67 487.69 616.05 490.55
  Q 610.37 496.73 603.20 504.23
  A 1.40 1.40 0.0 0 1 601.58 504.53
  C 577.75 493.27 556.76 474.68 541.28 453.83
  Q 539.36 451.23 542.01 453.08
  Q 546.28 456.08 550.16 458.59
  C 565.20 468.34 586.03 475.67 604.26 467.77
  A 0.66 0.65 -43.7 0 0 604.29 466.58
  Q 564.26 447.06 538.40 410.57
  Q 537.39 409.13 537.04 408.47
  Q 536.11 406.69 537.48 407.77
  C 552.54 419.64 571.63 430.21 591.05 421.15
  Q 591.38 420.99 591.15 420.70
  Q 590.35 419.68 588.80 418.71
  Q 554.69 397.26 534.58 365.99
  Q 532.70 363.07 535.37 365.30
  C 547.90 375.79 567.30 387.75 583.86 376.57
  A 0.57 0.56 40.7 0 0 583.78 375.59
  C 562.52 365.46 543.76 350.17 532.16 329.35
  Q 521.44 310.12 516.20 289.28
  A 0.22 0.22 0.0 0 0 515.84 289.17
  Q 515.66 289.35 515.55 289.76
  Q 510.76 308.07 502.09 324.11
  Q 494.02 339.05 485.62 347.87
  Q 468.97 365.37 447.22 375.69
  A 0.51 0.51 0.0 0 0 447.13 376.56
  C 456.56 383.48 468.76 381.93 479.00 376.71
  Q 487.54 372.36 495.95 364.43
  Q 496.24 364.15 496.71 364.19
  Q 497.26 364.23 496.95 364.69
  Q 483.57 384.64 466.41 400.29
  C 458.30 407.68 449.41 413.80 439.42 420.37
  A 0.44 0.44 0.0 0 0 439.46 421.13
  C 457.44 430.36 477.57 420.33 491.71 408.74
  Q 496.02 405.21 492.73 409.70
  C 478.39 429.29 460.45 446.68 439.42 458.63
  Q 432.06 462.81 425.22 466.22
  A 0.62 0.61 -44.7 0 0 425.21 467.32
  C 443.33 476.45 466.79 467.78 482.26 456.97
  Q 488.12 452.88 489.85 451.75
  Q 490.70 451.20 490.09 452.01
  Z
  M 620.73 397.86
  Q 623.25 394.25 625.14 391.21
  C 632.91 378.73 631.58 363.49 623.05 351.67
  Q 621.70 349.80 622.02 352.09
  C 623.94 365.73 619.11 379.04 611.49 390.23
  C 603.89 401.38 597.93 409.42 597.68 422.25
  Q 597.28 442.28 613.24 454.07
  Q 616.68 456.60 620.46 457.66
  Q 620.97 457.81 620.70 457.35
  Q 613.55 445.01 611.28 440.58
  Q 609.06 436.26 612.32 439.85
  Q 616.78 444.76 625.14 447.78
  Q 626.36 448.22 625.63 447.16
  Q 616.47 433.77 621.13 417.38
  A 0.86 0.86 0.0 0 1 622.77 417.32
  L 629.20 435.32
  A 0.53 0.53 0.0 0 0 630.12 435.47
  Q 631.40 433.84 632.15 431.62
  Q 634.98 423.28 635.61 417.62
  Q 637.67 399.27 638.53 391.54
  Q 638.88 388.49 639.64 385.49
  Q 639.90 384.49 640.22 385.47
  Q 643.21 394.45 651.05 416.76
  Q 654.02 425.22 654.60 432.14
  Q 654.80 434.54 655.73 432.32
  Q 657.18 428.86 658.37 422.86
  Q 660.76 410.86 659.69 399.24
  Q 659.48 396.95 660.77 398.86
  Q 667.82 409.32 670.48 420.73
  C 672.28 428.48 672.18 436.53 672.10 445.17
  A 0.42 0.42 0.0 0 0 672.68 445.57
  Q 675.35 444.48 677.73 442.48
  Q 688.14 433.80 690.32 421.18
  A 0.46 0.44 36.6 0 1 691.16 421.08
  Q 691.20 421.15 691.24 421.56
  Q 693.28 441.64 682.66 458.53
  Q 681.67 460.11 683.33 459.28
  Q 684.54 458.69 685.73 457.46
  Q 705.01 437.58 700.11 411.10
  C 698.36 401.68 693.68 391.90 688.47 383.27
  Q 687.34 381.39 687.41 383.58
  Q 687.94 399.10 682.83 416.88
  A 0.17 0.17 0.0 0 1 682.50 416.87
  Q 679.46 403.90 670.46 393.61
  A 0.71 0.70 -51.7 0 1 670.37 392.80
  C 678.18 378.89 676.33 362.63 668.03 349.60
  Q 666.47 347.16 666.88 350.02
  C 668.54 361.68 667.46 372.01 660.80 381.87
  Q 659.80 383.35 659.53 381.59
  C 656.07 358.96 650.95 336.80 630.82 323.82
  Q 627.57 321.73 629.99 324.74
  Q 637.32 333.90 639.60 344.72
  C 643.88 365.07 637.94 385.46 621.02 398.14
  Q 620.02 398.88 620.73 397.86
  Z
  M 409.72 397.94
  Q 410.40 399.18 409.31 398.34
  C 401.66 392.36 396.87 385.61 393.79 376.14
  Q 386.17 352.77 398.43 331.04
  C 399.87 328.48 402.10 326.28 403.57 323.70
  Q 403.96 323.01 403.28 323.42
  C 381.25 336.46 377.00 358.26 372.36 381.58
  A 0.57 0.57 0.0 0 1 371.33 381.79
  C 364.59 371.76 363.60 361.59 365.08 349.77
  Q 365.38 347.43 364.10 349.41
  C 357.17 360.20 354.68 373.82 359.33 386.19
  Q 360.59 389.55 362.50 393.41
  Q 362.71 393.84 362.39 394.19
  Q 352.76 404.62 350.40 416.90
  Q 350.05 418.72 349.56 416.93
  C 346.23 404.68 343.79 393.96 344.99 382.91
  A 0.35 0.35 0.0 0 0 344.46 382.57
  Q 344.12 382.78 343.99 382.98
  C 337.38 393.56 331.93 406.19 331.24 418.50
  Q 329.98 441.25 345.83 457.48
  Q 347.20 458.89 349.05 460.08
  A 0.91 0.35 67.9 0 0 349.03 458.76
  C 341.62 447.84 339.92 433.48 341.28 420.49
  Q 341.29 420.40 341.53 420.38
  Q 341.81 420.35 341.86 420.62
  Q 344.84 436.18 358.13 445.52
  Q 359.82 446.71 359.84 444.64
  Q 359.91 436.06 360.69 428.62
  C 361.83 417.81 366.19 408.60 371.51 399.22
  Q 372.95 396.69 372.65 399.58
  Q 370.99 415.91 376.35 433.44
  Q 376.46 433.81 376.77 433.80
  Q 377.25 433.78 377.25 433.30
  Q 377.28 427.91 379.26 422.05
  Q 382.67 411.96 389.53 393.83
  Q 390.76 390.57 392.00 386.62
  Q 392.50 385.02 392.93 386.64
  Q 393.43 388.51 393.65 391.05
  Q 394.20 397.52 395.13 411.44
  Q 396.03 424.91 401.01 436.03
  A 0.61 0.61 0.0 0 0 402.14 435.99
  L 409.02 417.51
  A 0.53 0.53 0.0 0 1 409.99 417.45
  C 414.38 425.80 410.75 439.35 406.06 446.72
  Q 404.94 448.49 406.97 447.96
  C 412.18 446.60 415.98 443.44 419.98 439.68
  Q 421.18 438.55 420.48 440.04
  Q 417.51 446.37 412.46 454.22
  Q 411.45 455.79 411.00 457.17
  Q 410.82 457.72 411.38 457.58
  Q 414.60 456.79 417.66 454.66
  Q 432.67 444.19 433.86 425.71
  C 434.82 410.66 427.58 401.92 419.31 389.59
  C 412.34 379.21 407.24 365.17 409.63 352.75
  Q 410.14 350.12 408.47 352.21
  Q 407.00 354.06 405.22 357.79
  Q 396.99 375.08 406.30 391.78
  Q 409.62 397.74 409.72 397.94
  Z
  M 674.00 547.00
  Q 674.04 547.25 673.84 548.02
  C 669.57 565.14 656.98 581.86 643.91 594.91
  Q 643.73 595.08 643.50 595.60
  A 0.39 0.38 -76.9 0 0 643.83 596.14
  C 675.36 597.70 703.00 580.28 722.38 556.63
  Q 739.13 536.19 749.88 512.73
  C 758.45 494.00 761.92 475.06 759.17 454.41
  A 0.57 0.57 0.0 0 0 758.69 453.93
  Q 758.20 453.85 757.98 454.26
  Q 751.24 466.65 740.93 477.67
  C 734.70 484.32 728.09 490.86 721.23 495.94
  C 714.93 500.61 709.50 499.46 703.44 495.30
  Q 696.84 490.77 689.45 483.57
  Q 671.13 465.72 654.34 443.96
  Q 653.35 442.68 652.64 442.27
  Q 651.87 441.82 651.11 442.60
  L 617.19 477.51
  A 1.11 0.72 -39.5 0 0 616.86 478.56
  C 618.12 481.24 619.48 482.41 622.45 483.89
  Q 632.76 489.04 640.36 498.08
  Q 657.91 518.94 673.61 545.92
  Q 673.91 546.43 674.00 547.00
  Z
  M 356.96 546.45
  Q 360.01 541.89 369.74 526.99
  Q 380.60 510.33 392.61 497.08
  C 398.04 491.10 403.44 486.48 410.92 482.92
  Q 412.82 482.01 414.20 479.79
  A 1.99 1.98 39.0 0 0 413.94 477.35
  L 380.93 443.17
  Q 379.63 441.82 378.49 443.30
  Q 361.22 465.44 343.75 482.48
  Q 333.28 492.68 324.68 497.41
  C 317.17 501.54 311.87 497.73 306.22 492.98
  C 293.18 482.01 281.83 469.55 273.63 454.64
  Q 273.39 454.20 272.97 454.03
  A 0.54 0.54 0.0 0 0 272.24 454.53
  C 272.15 493.85 289.92 533.15 315.65 562.38
  C 333.94 583.16 358.09 596.62 386.24 596.25
  A 0.41 0.41 0.0 0 0 386.52 595.55
  Q 369.39 579.05 359.74 557.56
  Q 357.46 552.47 356.74 547.41
  A 1.35 1.33 -32.6 0 1 356.96 546.45
  Z
  M 547.63 731.70
  Q 555.60 730.98 569.61 730.72
  Q 571.63 730.69 573.99 730.04
  A 0.43 0.43 0.0 0 0 574.11 729.26
  Q 572.80 728.45 570.93 728.08
  Q 551.13 724.18 530.69 724.20
  Q 529.73 724.20 529.72 723.24
  L 528.44 649.80
  Q 528.42 648.78 529.13 649.52
  Q 558.05 679.35 586.68 709.52
  Q 593.12 716.30 596.04 720.16
  C 597.30 721.82 598.29 722.44 600.34 722.18
  Q 603.87 721.72 606.75 718.72
  Q 611.57 713.70 618.77 706.53
  C 620.90 704.40 619.20 700.69 617.58 699.02
  Q 573.90 654.08 540.08 617.73
  A 0.72 0.72 0.0 0 0 539.02 617.72
  L 503.71 655.46
  A 4.29 4.28 67.3 0 0 502.56 658.28
  L 500.72 723.70
  A 0.43 0.42 -90.0 0 1 500.31 724.12
  C 484.48 724.63 470.87 725.33 456.32 728.86
  Q 455.34 729.10 455.64 730.25
  Q 455.78 730.79 457.10 730.83
  Q 469.77 731.23 479.45 732.26
  Q 479.53 732.26 479.58 732.31
  Q 479.63 732.37 479.66 732.43
  Q 479.74 732.60 479.46 732.62
  Q 474.83 732.98 473.25 733.25
  C 464.76 734.70 455.91 735.73 447.17 737.42
  Q 442.00 738.41 447.26 738.73
  C 451.61 739.00 455.85 739.39 460.62 738.70
  Q 469.03 737.47 471.78 737.30
  Q 514.62 734.61 556.99 736.80
  Q 559.81 736.94 575.76 738.28
  Q 580.19 738.65 584.79 738.83
  A 0.27 0.26 -87.8 0 0 585.06 738.57
  L 585.07 738.22
  Q 585.08 738.06 584.92 738.03
  Q 565.27 734.07 547.63 731.98
  A 0.14 0.14 0.0 0 1 547.63 731.70
  Z
  M 604.98 727.39
  A 1.70 1.70 0.0 0 0 604.97 729.74
  Q 616.85 742.24 626.31 749.86
  Q 631.89 754.37 637.43 751.95
  Q 643.38 749.36 647.09 743.07
  Q 651.24 736.03 645.91 729.48
  Q 640.32 722.60 630.17 710.72
  C 626.93 706.93 623.48 708.65 620.44 711.62
  Q 615.79 716.16 604.98 727.39
  Z
  M 499.20 743.55
  Q 494.41 744.38 491.33 744.62
  C 471.01 746.16 450.85 748.01 432.16 751.65
  Q 431.94 751.70 431.85 751.91
  Q 431.76 752.09 431.78 752.22
  Q 431.83 752.63 432.23 752.71
  Q 436.05 753.51 438.33 753.65
  Q 464.97 755.38 495.01 755.68
  C 528.76 756.01 560.58 755.93 593.00 753.75
  Q 596.96 753.49 599.99 752.63
  Q 600.51 752.49 600.09 752.15
  Q 599.02 751.28 597.83 751.09
  Q 573.45 747.17 543.33 744.42
  Q 541.89 744.29 543.24 743.78
  Q 543.95 743.52 545.01 743.44
  Q 561.25 742.25 577.30 744.80
  Q 577.45 744.83 577.44 744.67
  L 577.44 744.39
  Q 577.43 744.09 577.14 744.04
  Q 565.83 741.99 557.60 740.93
  Q 541.44 738.85 527.16 741.09
  A 4.53 4.50 51.3 0 1 524.79 740.82
  C 518.15 738.15 511.58 736.19 504.25 736.67
  C 494.99 737.27 486.75 737.68 478.10 739.25
  Q 468.68 740.96 465.80 741.49
  C 461.60 742.28 457.68 742.33 453.59 742.90
  Q 453.02 742.98 452.94 743.25
  Q 452.85 743.61 453.21 743.55
  Q 456.95 742.90 457.23 742.90
  C 462.61 742.86 467.80 742.08 473.27 742.22
  Q 479.56 742.39 491.01 742.62
  Q 496.54 742.73 499.20 743.31
  Q 499.81 743.44 499.20 743.55
  Z"
/>
<path fill="#1a1f2a" d="
  M 489.85 451.75
  Q 488.12 452.88 482.26 456.97
  C 466.79 467.78 443.33 476.45 425.21 467.32
  A 0.62 0.61 -44.7 0 1 425.22 466.22
  Q 432.06 462.81 439.42 458.63
  C 460.45 446.68 478.39 429.29 492.73 409.70
  Q 496.02 405.21 491.71 408.74
  C 477.57 420.33 457.44 430.36 439.46 421.13
  A 0.44 0.44 0.0 0 1 439.42 420.37
  C 449.41 413.80 458.30 407.68 466.41 400.29
  Q 483.57 384.64 496.95 364.69
  Q 497.26 364.23 496.71 364.19
  Q 496.24 364.15 495.95 364.43
  Q 487.54 372.36 479.00 376.71
  C 468.76 381.93 456.56 383.48 447.13 376.56
  A 0.51 0.51 0.0 0 1 447.22 375.69
  Q 468.97 365.37 485.62 347.87
  Q 494.02 339.05 502.09 324.11
  Q 510.76 308.07 515.55 289.76
  Q 515.66 289.35 515.84 289.17
  A 0.22 0.22 0.0 0 1 516.20 289.28
  Q 521.44 310.12 532.16 329.35
  C 543.76 350.17 562.52 365.46 583.78 375.59
  A 0.57 0.56 40.7 0 1 583.86 376.57
  C 567.30 387.75 547.90 375.79 535.37 365.30
  Q 532.70 363.07 534.58 365.99
  Q 554.69 397.26 588.80 418.71
  Q 590.35 419.68 591.15 420.70
  Q 591.38 420.99 591.05 421.15
  C 571.63 430.21 552.54 419.64 537.48 407.77
  Q 536.11 406.69 537.04 408.47
  Q 537.39 409.13 538.40 410.57
  Q 564.26 447.06 604.29 466.58
  A 0.66 0.65 -43.7 0 1 604.26 467.77
  C 586.03 475.67 565.20 468.34 550.16 458.59
  Q 546.28 456.08 542.01 453.08
  Q 539.36 451.23 541.28 453.83
  C 556.76 474.68 577.75 493.27 601.58 504.53
  A 1.40 1.40 0.0 0 0 603.20 504.23
  Q 610.37 496.73 616.05 490.55
  C 618.67 487.69 623.39 490.72 625.52 492.79
  Q 630.64 497.76 635.28 502.56
  Q 637.46 504.82 638.27 507.01
  Q 638.42 507.42 638.31 507.85
  Q 637.69 510.04 636.25 511.76
  Q 627.88 521.77 613.56 536.65
  Q 610.73 539.59 608.82 539.87
  Q 605.42 540.38 602.80 537.16
  Q 595.57 528.27 586.78 522.13
  A 1.46 1.45 26.1 0 1 586.22 520.51
  C 586.93 518.21 590.17 515.90 592.11 514.56
  A 0.20 0.20 0.0 0 0 591.99 514.19
  C 574.28 514.80 559.16 508.58 544.33 499.12
  Q 543.00 498.28 543.68 499.69
  Q 544.33 501.05 545.46 502.56
  Q 558.68 520.36 575.36 535.03
  A 1.00 0.99 -49.5 0 0 576.79 534.91
  Q 578.99 532.23 581.92 528.90
  Q 583.66 526.92 585.76 527.93
  Q 588.70 529.35 591.63 532.49
  C 595.35 536.49 601.17 541.85 601.81 544.99
  A 1.21 1.17 56.8 0 1 601.63 545.92
  Q 600.42 547.65 598.66 548.75
  A 1.13 1.13 0.0 0 0 598.72 550.71
  L 623.98 564.39
  Q 624.38 564.61 623.95 564.76
  C 600.98 572.93 581.17 567.66 560.79 555.92
  A 0.67 0.67 0.0 0 0 559.87 556.19
  L 558.14 559.38
  A 1.30 1.29 37.7 0 0 558.34 560.90
  C 568.97 572.00 580.50 582.29 593.32 590.45
  Q 607.60 599.55 623.91 606.84
  Q 625.16 607.40 623.83 607.74
  Q 585.56 617.51 551.29 597.11
  A 0.64 0.64 0.0 0 0 550.51 597.22
  Q 545.15 602.84 431.14 724.63
  Q 415.14 741.72 407.61 750.10
  C 398.86 759.84 379.17 737.89 384.54 728.56
  Q 385.01 727.75 388.89 723.83
  Q 446.92 665.22 502.85 605.11
  Q 503.57 604.34 503.59 603.42
  Q 503.88 592.26 504.22 577.65
  Q 504.24 576.81 503.63 577.38
  L 499.22 581.46
  Q 498.59 582.04 498.56 582.94
  Q 498.09 595.35 498.11 598.37
  C 498.14 602.11 496.68 604.23 494.03 606.23
  Q 493.79 606.42 493.57 606.21
  L 482.02 595.41
  A 0.72 0.71 -40.4 0 0 481.12 595.34
  C 476.94 598.27 472.91 600.22 467.73 602.59
  Q 437.70 616.36 405.45 607.65
  Q 403.74 607.19 405.37 606.50
  Q 415.46 602.26 425.81 596.81
  Q 451.46 583.30 471.76 561.17
  A 0.87 0.87 0.0 0 0 471.43 559.77
  Q 470.44 559.40 470.53 558.49
  A 1.22 1.14 32.9 0 1 472.73 558.09
  L 473.25 558.90
  A 0.51 0.51 0.0 0 0 474.06 558.98
  L 483.52 548.87
  Q 484.01 548.34 483.32 548.13
  Q 482.95 548.02 482.74 548.18
  Q 476.19 553.03 468.99 557.41
  C 455.19 565.79 437.02 571.10 421.45 568.54
  Q 414.23 567.36 406.25 564.58
  Q 405.67 564.38 406.29 564.05
  L 430.39 551.46
  A 0.71 0.62 51.0 0 0 430.43 550.37
  C 428.47 548.60 426.63 547.04 428.88 544.37
  Q 430.55 542.40 440.16 532.42
  Q 442.73 529.75 445.75 528.04
  A 1.22 1.21 -38.1 0 1 447.18 528.21
  L 454.24 534.82
  A 0.41 0.41 0.0 0 0 454.79 534.83
  Q 472.51 519.11 487.41 498.92
  Q 488.14 497.93 487.10 498.59
  C 472.73 507.71 456.20 514.44 439.00 514.16
  Q 437.15 514.14 438.68 515.18
  Q 442.01 517.44 443.99 520.53
  A 1.68 1.67 -32.9 0 1 443.49 522.84
  Q 441.06 524.42 438.67 526.66
  Q 436.01 529.16 429.36 536.31
  Q 426.39 539.50 424.66 540.10
  C 421.00 541.37 419.29 538.81 416.56 535.91
  Q 405.90 524.58 395.33 513.16
  Q 393.38 511.05 392.26 508.42
  Q 392.06 507.95 392.25 507.47
  Q 393.08 505.32 395.16 503.16
  Q 395.70 502.61 403.55 494.55
  C 405.76 492.29 410.98 487.91 414.08 489.67
  Q 414.66 490.00 417.45 492.81
  Q 422.67 498.06 427.48 503.44
  A 0.85 0.85 0.0 0 0 428.48 503.65
  C 453.19 491.83 473.66 473.82 490.09 452.01
  Q 490.70 451.20 489.85 451.75
  Z
  M 556.11 557.64
  C 556.91 556.92 557.74 556.01 558.58 555.70
  Q 559.64 555.31 558.59 554.65
  L 548.72 548.38
  Q 546.93 547.24 548.08 548.99
  C 550.06 552.00 552.88 554.05 554.66 557.38
  A 0.94 0.94 0.0 0 0 556.11 557.64
  Z
  M 536.86 587.31
  L 535.60 586.05
  A 0.41 0.41 0.0 0 0 535.02 586.05
  L 534.92 586.15
  A 13.76 1.22 -45.0 0 0 526.05 596.75
  L 526.16 596.86
  A 13.76 1.22 -45.0 0 0 536.76 587.99
  L 536.86 587.89
  A 0.41 0.41 0.0 0 0 536.86 587.31
  Z
  M 426.56 697.29
  Q 431.05 691.71 431.94 690.42
  Q 432.00 690.33 431.91 690.24
  L 431.91 690.23
  Q 431.87 690.19 431.77 690.29
  L 397.45 726.28
  Q 396.57 727.19 397.50 728.06
  L 398.30 728.81
  Q 399.28 729.72 400.15 728.72
  Q 413.46 713.58 426.56 697.29
  Z
  M 402.5868 747.8217
  A 10.39 1.74 50.8 0 0 397.3684 738.6703
  A 10.39 1.74 50.8 0 0 389.4532 731.7183
  A 10.39 1.74 50.8 0 0 394.6716 740.8697
  A 10.39 1.74 50.8 0 0 402.5868 747.8217
  Z"
/>
<path fill="#1a1f2a" d="
  M 620.73 397.86
  Q 620.02 398.88 621.02 398.14
  C 637.94 385.46 643.88 365.07 639.60 344.72
  Q 637.32 333.90 629.99 324.74
  Q 627.57 321.73 630.82 323.82
  C 650.95 336.80 656.07 358.96 659.53 381.59
  Q 659.80 383.35 660.80 381.87
  C 667.46 372.01 668.54 361.68 666.88 350.02
  Q 666.47 347.16 668.03 349.60
  C 676.33 362.63 678.18 378.89 670.37 392.80
  A 0.71 0.70 -51.7 0 0 670.46 393.61
  Q 679.46 403.90 682.50 416.87
  A 0.17 0.17 0.0 0 0 682.83 416.88
  Q 687.94 399.10 687.41 383.58
  Q 687.34 381.39 688.47 383.27
  C 693.68 391.90 698.36 401.68 700.11 411.10
  Q 705.01 437.58 685.73 457.46
  Q 684.54 458.69 683.33 459.28
  Q 681.67 460.11 682.66 458.53
  Q 693.28 441.64 691.24 421.56
  Q 691.20 421.15 691.16 421.08
  A 0.46 0.44 36.6 0 0 690.32 421.18
  Q 688.14 433.80 677.73 442.48
  Q 675.35 444.48 672.68 445.57
  A 0.42 0.42 0.0 0 1 672.10 445.17
  C 672.18 436.53 672.28 428.48 670.48 420.73
  Q 667.82 409.32 660.77 398.86
  Q 659.48 396.95 659.69 399.24
  Q 660.76 410.86 658.37 422.86
  Q 657.18 428.86 655.73 432.32
  Q 654.80 434.54 654.60 432.14
  Q 654.02 425.22 651.05 416.76
  Q 643.21 394.45 640.22 385.47
  Q 639.90 384.49 639.64 385.49
  Q 638.88 388.49 638.53 391.54
  Q 637.67 399.27 635.61 417.62
  Q 634.98 423.28 632.15 431.62
  Q 631.40 433.84 630.12 435.47
  A 0.53 0.53 0.0 0 1 629.20 435.32
  L 622.77 417.32
  A 0.86 0.86 0.0 0 0 621.13 417.38
  Q 616.47 433.77 625.63 447.16
  Q 626.36 448.22 625.14 447.78
  Q 616.78 444.76 612.32 439.85
  Q 609.06 436.26 611.28 440.58
  Q 613.55 445.01 620.70 457.35
  Q 620.97 457.81 620.46 457.66
  Q 616.68 456.60 613.24 454.07
  Q 597.28 442.28 597.68 422.25
  C 597.93 409.42 603.89 401.38 611.49 390.23
  C 619.11 379.04 623.94 365.73 622.02 352.09
  Q 621.70 349.80 623.05 351.67
  C 631.58 363.49 632.91 378.73 625.14 391.21
  Q 623.25 394.25 620.73 397.86
  Z"
/>
<path fill="#1a1f2a" d="
  M 409.72 397.94
  Q 409.62 397.74 406.30 391.78
  Q 396.99 375.08 405.22 357.79
  Q 407.00 354.06 408.47 352.21
  Q 410.14 350.12 409.63 352.75
  C 407.24 365.17 412.34 379.21 419.31 389.59
  C 427.58 401.92 434.82 410.66 433.86 425.71
  Q 432.67 444.19 417.66 454.66
  Q 414.60 456.79 411.38 457.58
  Q 410.82 457.72 411.00 457.17
  Q 411.45 455.79 412.46 454.22
  Q 417.51 446.37 420.48 440.04
  Q 421.18 438.55 419.98 439.68
  C 415.98 443.44 412.18 446.60 406.97 447.96
  Q 404.94 448.49 406.06 446.72
  C 410.75 439.35 414.38 425.80 409.99 417.45
  A 0.53 0.53 0.0 0 0 409.02 417.51
  L 402.14 435.99
  A 0.61 0.61 0.0 0 1 401.01 436.03
  Q 396.03 424.91 395.13 411.44
  Q 394.20 397.52 393.65 391.05
  Q 393.43 388.51 392.93 386.64
  Q 392.50 385.02 392.00 386.62
  Q 390.76 390.57 389.53 393.83
  Q 382.67 411.96 379.26 422.05
  Q 377.28 427.91 377.25 433.30
  Q 377.25 433.78 376.77 433.80
  Q 376.46 433.81 376.35 433.44
  Q 370.99 415.91 372.65 399.58
  Q 372.95 396.69 371.51 399.22
  C 366.19 408.60 361.83 417.81 360.69 428.62
  Q 359.91 436.06 359.84 444.64
  Q 359.82 446.71 358.13 445.52
  Q 344.84 436.18 341.86 420.62
  Q 341.81 420.35 341.53 420.38
  Q 341.29 420.40 341.28 420.49
  C 339.92 433.48 341.62 447.84 349.03 458.76
  A 0.91 0.35 67.9 0 1 349.05 460.08
  Q 347.20 458.89 345.83 457.48
  Q 329.98 441.25 331.24 418.50
  C 331.93 406.19 337.38 393.56 343.99 382.98
  Q 344.12 382.78 344.46 382.57
  A 0.35 0.35 0.0 0 1 344.99 382.91
  C 343.79 393.96 346.23 404.68 349.56 416.93
  Q 350.05 418.72 350.40 416.90
  Q 352.76 404.62 362.39 394.19
  Q 362.71 393.84 362.50 393.41
  Q 360.59 389.55 359.33 386.19
  C 354.68 373.82 357.17 360.20 364.10 349.41
  Q 365.38 347.43 365.08 349.77
  C 363.60 361.59 364.59 371.76 371.33 381.79
  A 0.57 0.57 0.0 0 0 372.36 381.58
  C 377.00 358.26 381.25 336.46 403.28 323.42
  Q 403.96 323.01 403.57 323.70
  C 402.10 326.28 399.87 328.48 398.43 331.04
  Q 386.17 352.77 393.79 376.14
  C 396.87 385.61 401.66 392.36 409.31 398.34
  Q 410.40 399.18 409.72 397.94
  Z"
/>
<path fill="#1a1f2a" d="
  M 673.61 545.92
  Q 657.91 518.94 640.36 498.08
  Q 632.76 489.04 622.45 483.89
  C 619.48 482.41 618.12 481.24 616.86 478.56
  A 1.11 0.72 -39.5 0 1 617.19 477.51
  L 651.11 442.60
  Q 651.87 441.82 652.64 442.27
  Q 653.35 442.68 654.34 443.96
  Q 671.13 465.72 689.45 483.57
  Q 696.84 490.77 703.44 495.30
  C 709.50 499.46 714.93 500.61 721.23 495.94
  C 728.09 490.86 734.70 484.32 740.93 477.67
  Q 751.24 466.65 757.98 454.26
  Q 758.20 453.85 758.69 453.93
  A 0.57 0.57 0.0 0 1 759.17 454.41
  C 761.92 475.06 758.45 494.00 749.88 512.73
  Q 739.13 536.19 722.38 556.63
  C 703.00 580.28 675.36 597.70 643.83 596.14
  A 0.39 0.38 -76.9 0 1 643.50 595.60
  Q 643.73 595.08 643.91 594.91
  C 656.98 581.86 669.57 565.14 673.84 548.02
  Q 674.04 547.25 674.00 547.00
  Q 673.91 546.43 673.61 545.92
  Z"
/>
<path fill="#1a1f2a" d="
  M 356.74 547.41
  Q 357.46 552.47 359.74 557.56
  Q 369.39 579.05 386.52 595.55
  A 0.41 0.41 0.0 0 1 386.24 596.25
  C 358.09 596.62 333.94 583.16 315.65 562.38
  C 289.92 533.15 272.15 493.85 272.24 454.53
  A 0.54 0.54 0.0 0 1 272.97 454.03
  Q 273.39 454.20 273.63 454.64
  C 281.83 469.55 293.18 482.01 306.22 492.98
  C 311.87 497.73 317.17 501.54 324.68 497.41
  Q 333.28 492.68 343.75 482.48
  Q 361.22 465.44 378.49 443.30
  Q 379.63 441.82 380.93 443.17
  L 413.94 477.35
  A 1.99 1.98 39.0 0 1 414.20 479.79
  Q 412.82 482.01 410.92 482.92
  C 403.44 486.48 398.04 491.10 392.61 497.08
  Q 380.60 510.33 369.74 526.99
  Q 360.01 541.89 356.96 546.45
  A 1.35 1.33 -32.6 0 0 356.74 547.41
  Z"
/>
<path fill="#f9f9fb" d="
  M 558.58 555.70
  C 557.74 556.01 556.91 556.92 556.11 557.64
  A 0.94 0.94 0.0 0 1 554.66 557.38
  C 552.88 554.05 550.06 552.00 548.08 548.99
  Q 546.93 547.24 548.72 548.38
  L 558.59 554.65
  Q 559.64 555.31 558.58 555.70
  Z"
/>
<path fill="#f9f9fb" d="
  M 536.86 587.31
  A 0.41 0.41 0.0 0 1 536.86 587.89
  L 536.76 587.99
  A 13.76 1.22 -45.0 0 1 526.16 596.86
  L 526.05 596.75
  A 13.76 1.22 -45.0 0 1 534.92 586.15
  L 535.02 586.05
  A 0.41 0.41 0.0 0 1 535.60 586.05
  L 536.86 587.31
  Z"
/>
<path fill="#1a1f2a" d="
  M 547.63 731.98
  Q 565.27 734.07 584.92 738.03
  Q 585.08 738.06 585.07 738.22
  L 585.06 738.57
  A 0.27 0.26 -87.8 0 1 584.79 738.83
  Q 580.19 738.65 575.76 738.28
  Q 559.81 736.94 556.99 736.80
  Q 514.62 734.61 471.78 737.30
  Q 469.03 737.47 460.62 738.70
  C 455.85 739.39 451.61 739.00 447.26 738.73
  Q 442.00 738.41 447.17 737.42
  C 455.91 735.73 464.76 734.70 473.25 733.25
  Q 474.83 732.98 479.46 732.62
  Q 479.74 732.60 479.66 732.43
  Q 479.63 732.37 479.58 732.31
  Q 479.53 732.26 479.45 732.26
  Q 469.77 731.23 457.10 730.83
  Q 455.78 730.79 455.64 730.25
  Q 455.34 729.10 456.32 728.86
  C 470.87 725.33 484.48 724.63 500.31 724.12
  A 0.43 0.42 -90.0 0 0 500.72 723.70
  L 502.56 658.28
  A 4.29 4.28 67.3 0 1 503.71 655.46
  L 539.02 617.72
  A 0.72 0.72 0.0 0 1 540.08 617.73
  Q 573.90 654.08 617.58 699.02
  C 619.20 700.69 620.90 704.40 618.77 706.53
  Q 611.57 713.70 606.75 718.72
  Q 603.87 721.72 600.34 722.18
  C 598.29 722.44 597.30 721.82 596.04 720.16
  Q 593.12 716.30 586.68 709.52
  Q 558.05 679.35 529.13 649.52
  Q 528.42 648.78 528.44 649.80
  L 529.72 723.24
  Q 529.73 724.20 530.69 724.20
  Q 551.13 724.18 570.93 728.08
  Q 572.80 728.45 574.11 729.26
  A 0.43 0.43 0.0 0 1 573.99 730.04
  Q 571.63 730.69 569.61 730.72
  Q 555.60 730.98 547.63 731.70
  A 0.14 0.14 0.0 0 0 547.63 731.98
  Z"
/>
<path fill="#f9f9fb" d="
  M 426.56 697.29
  Q 413.46 713.58 400.15 728.72
  Q 399.28 729.72 398.30 728.81
  L 397.50 728.06
  Q 396.57 727.19 397.45 726.28
  L 431.77 690.29
  Q 431.87 690.19 431.91 690.23
  L 431.91 690.24
  Q 432.00 690.33 431.94 690.42
  Q 431.05 691.71 426.56 697.29
  Z"
/>
<path fill="#1a1f2a" d="
  M 604.98 727.39
  Q 615.79 716.16 620.44 711.62
  C 623.48 708.65 626.93 706.93 630.17 710.72
  Q 640.32 722.60 645.91 729.48
  Q 651.24 736.03 647.09 743.07
  Q 643.38 749.36 637.43 751.95
  Q 631.89 754.37 626.31 749.86
  Q 616.85 742.24 604.97 729.74
  A 1.70 1.70 0.0 0 1 604.98 727.39
  Z"
/>
<path fill="#f9f9fb" d="
  M 402.5868 747.8217
  A 10.39 1.74 50.8 0 1 394.6716 740.8697
  A 10.39 1.74 50.8 0 1 389.4532 731.7183
  A 10.39 1.74 50.8 0 1 397.3684 738.6703
  A 10.39 1.74 50.8 0 1 402.5868 747.8217
  Z"
/>
<path fill="#1a1f2a" d="
  M 499.20 743.31
  Q 496.54 742.73 491.01 742.62
  Q 479.56 742.39 473.27 742.22
  C 467.80 742.08 462.61 742.86 457.23 742.90
  Q 456.95 742.90 453.21 743.55
  Q 452.85 743.61 452.94 743.25
  Q 453.02 742.98 453.59 742.90
  C 457.68 742.33 461.60 742.28 465.80 741.49
  Q 468.68 740.96 478.10 739.25
  C 486.75 737.68 494.99 737.27 504.25 736.67
  C 511.58 736.19 518.15 738.15 524.79 740.82
  A 4.53 4.50 51.3 0 0 527.16 741.09
  Q 541.44 738.85 557.60 740.93
  Q 565.83 741.99 577.14 744.04
  Q 577.43 744.09 577.44 744.39
  L 577.44 744.67
  Q 577.45 744.83 577.30 744.80
  Q 561.25 742.25 545.01 743.44
  Q 543.95 743.52 543.24 743.78
  Q 541.89 744.29 543.33 744.42
  Q 573.45 747.17 597.83 751.09
  Q 599.02 751.28 600.09 752.15
  Q 600.51 752.49 599.99 752.63
  Q 596.96 753.49 593.00 753.75
  C 560.58 755.93 528.76 756.01 495.01 755.68
  Q 464.97 755.38 438.33 753.65
  Q 436.05 753.51 432.23 752.71
  Q 431.83 752.63 431.78 752.22
  Q 431.76 752.09 431.85 751.91
  Q 431.94 751.70 432.16 751.65
  C 450.85 748.01 471.01 746.16 491.33 744.62
  Q 494.41 744.38 499.20 743.55
  Q 499.81 743.44 499.20 743.31
  Z"
/>
</svg>
